<?xml version="1.0" encoding="utf-8"?>
<!-- Generator: Adobe Illustrator 23.0.5, SVG Export Plug-In . SVG Version: 6.00 Build 0)  -->
<svg version="1.1" id="Layer_1" xmlns="http://www.w3.org/2000/svg" xmlns:xlink="http://www.w3.org/1999/xlink" x="0px" y="0px"
	 viewBox="0 0 241 76" style="enable-background:new 0 0 241 76;" xml:space="preserve">
<style type="text/css">
	.st0{display:none;fill:none;stroke:#EB5B00;}
	.st1{fill:#EB5B00;}
</style>
<image style="display:none;overflow:visible;" width="577" height="433" xlink:href="C:\Users\Abdel\Downloads\V+shopping_cart-removebg-preview.png"  transform="matrix(0.3808 0 0 0.4695 -76.3512 -58.76)">
</image>
<path class="st0" d="M241,136.6"/>
<g>
	<polygon class="st1" points="0,1.2 14.9,1.2 34.5,49.9 26.1,49.9 10.7,10.5 3.3,10.3 	"/>
	<polygon class="st1" points="23.7,1.2 86.9,1.2 68,49.9 59.9,49.9 74.8,10.5 36.4,10.3 47.1,38.6 55.3,18.5 62.7,18.7 50.6,49.9 
		43.6,49.9 	"/>
	<ellipse class="st1" cx="29.9" cy="67.6" rx="7" ry="7.1"/>
	<ellipse class="st1" cx="63.7" cy="67.6" rx="7" ry="7.1"/>
</g>
<g>
	<g>
		<path class="st1" d="M84.1,46.7l4.8-45.1h8.4l4.8,45.1h-5.3L96,39.2h-5.9l-0.8,7.5H84.1z M90.8,30h4.6l-1.8-19h-1L90.8,30z"/>
		<path class="st1" d="M103.8,46.7V1.6h8.4c1.3,0,2.5,0.4,3.5,1.1c1,0.7,1.8,1.9,2.4,3.5c0.6,1.6,0.9,3.9,0.9,6.7
			c0,1.9-0.1,3.4-0.2,4.7s-0.4,2.4-0.7,3.3c-0.3,1-0.8,1.8-1.3,2.6c0.6,0.5,1.1,1.2,1.5,2s0.7,1.9,0.9,3.2c0.2,1.3,0.3,3.1,0.3,5.3
			c0,2.5-0.2,4.5-0.6,6.2c-0.4,1.6-0.9,2.9-1.5,3.9c-0.7,1-1.4,1.6-2.3,2c-0.9,0.4-1.8,0.6-2.8,0.6H103.8z M109,20h2.8
			c0.5,0,1-0.2,1.3-0.6c0.3-0.4,0.6-1,0.7-1.8c0.1-0.8,0.2-1.8,0.2-3c0-1.7-0.2-3-0.6-3.7c-0.4-0.8-1-1.1-1.8-1.1H109V20z M109,38.4
			h2.9c0.6,0,1.1-0.1,1.4-0.4c0.4-0.3,0.7-0.8,0.8-1.6c0.2-0.8,0.3-1.9,0.3-3.3c0-1.1-0.1-1.9-0.2-2.6c-0.1-0.7-0.3-1.2-0.6-1.5
			c-0.2-0.4-0.5-0.6-0.8-0.8c-0.3-0.2-0.6-0.2-1-0.2H109V38.4z"/>
		<path class="st1" d="M121.7,46.7V1.6h7.9c1.6,0,3,0.5,4.1,1.4c1.1,0.9,2.1,2.3,2.8,4.2c0.7,1.8,1.2,4.1,1.5,6.9
			c0.3,2.7,0.5,5.9,0.5,9.4c0,3.6-0.1,6.8-0.4,9.7c-0.3,2.8-0.8,5.3-1.4,7.3c-0.7,2-1.6,3.6-2.7,4.7c-1.1,1.1-2.5,1.6-4.1,1.6H121.7
			z M126.9,36.9h2.5c0.8,0,1.5-0.3,2-1s0.9-1.6,1.1-2.8c0.3-1.2,0.4-2.6,0.5-4.3c0.1-1.6,0.1-3.4,0.1-5.4c0-1.9,0-3.5-0.1-5
			c-0.1-1.5-0.3-2.8-0.5-3.8c-0.3-1.1-0.6-1.9-1.1-2.4c-0.5-0.5-1.1-0.8-1.9-0.8h-2.5V36.9z"/>
		<path class="st1" d="M141.9,47V35.1l8-5.6l-8-5V13l11.7,11.2v11L141.9,47z"/>
		<path class="st1" d="M164.3,47.5c-0.9,0-1.8-0.1-2.7-0.3c-1-0.2-1.9-0.5-2.7-0.8c-0.9-0.3-1.6-0.6-2.2-0.9l0.3-9.1
			c0.6,0.1,1.4,0.3,2.2,0.5c0.8,0.2,1.7,0.4,2.5,0.6c0.8,0.2,1.6,0.2,2.2,0.2c0.6,0,1.1-0.2,1.5-0.5c0.4-0.3,0.6-0.8,0.8-1.4
			c0.2-0.6,0.3-1.4,0.3-2.4c0-0.8-0.1-1.4-0.2-1.9c-0.2-0.5-0.5-0.9-0.9-1.2c-0.4-0.3-1.1-0.7-1.9-1c-1.3-0.5-2.3-1.1-3.2-1.8
			c-0.9-0.7-1.6-1.6-2.1-2.6c-0.5-1-0.9-2.4-1.1-4c-0.2-1.6-0.4-3.5-0.4-5.8c0-3.8,0.3-6.8,0.9-8.9c0.6-2.1,1.4-3.5,2.5-4.4
			c1.1-0.8,2.4-1.3,3.9-1.3c0.7,0,1.5,0.1,2.4,0.3c0.9,0.2,1.8,0.4,2.6,0.6c0.9,0.2,1.6,0.5,2.2,0.7l-0.2,9.3
			c-0.6-0.1-1.3-0.3-2.1-0.4c-0.8-0.2-1.6-0.3-2.4-0.4c-0.8-0.1-1.5-0.2-2.1-0.2c-0.6,0-1,0.1-1.4,0.4c-0.4,0.2-0.7,0.6-0.8,1.1
			c-0.2,0.5-0.3,1.1-0.3,1.9c0,0.9,0.1,1.6,0.3,2.1c0.2,0.5,0.5,0.9,0.9,1.3c0.4,0.3,1.1,0.7,1.9,1.2c1.3,0.6,2.3,1.3,3.2,1.9
			c0.9,0.7,1.6,1.5,2.1,2.5c0.5,1,0.9,2.2,1.1,3.8c0.2,1.5,0.4,3.5,0.4,5.9c0,3.6-0.3,6.6-0.9,8.8c-0.6,2.2-1.4,3.8-2.5,4.7
			C167.2,47,165.8,47.5,164.3,47.5z"/>
		<path class="st1" d="M177.4,46.7V11.4h-4.8V1.6h14.7v9.8h-4.6v35.3H177.4z"/>
		<path class="st1" d="M197.4,47.5c-2.1,0-3.9-0.8-5.2-2.5c-1.3-1.7-2.3-4.2-2.9-7.7c-0.6-3.4-0.9-7.8-0.9-13.1
			c0-5.3,0.3-9.7,0.9-13.2c0.6-3.5,1.5-6,2.9-7.8c1.3-1.7,3-2.6,5.2-2.6c2.2,0,3.9,0.9,5.2,2.6c1.3,1.7,2.3,4.3,2.8,7.8
			c0.6,3.5,0.9,7.9,0.9,13.2s-0.3,9.7-0.9,13.1c-0.6,3.4-1.5,6-2.8,7.6C201.3,46.7,199.6,47.5,197.4,47.5z M197.4,37.7
			c1,0,1.8-0.5,2.3-1.5c0.5-1,0.9-2.5,1-4.5c0.2-2,0.3-4.5,0.3-7.4c0-3-0.1-5.5-0.3-7.5c-0.2-2-0.5-3.6-1-4.6
			c-0.5-1-1.3-1.6-2.3-1.6c-1,0-1.8,0.5-2.3,1.6c-0.5,1-0.9,2.6-1,4.6c-0.2,2-0.3,4.5-0.3,7.5c0,2.9,0.1,5.3,0.3,7.4
			c0.2,2,0.5,3.5,1,4.6C195.6,37.2,196.4,37.7,197.4,37.7z"/>
		<path class="st1" d="M208.6,46.7V1.6h8c1.7,0,3.2,0.5,4.4,1.4c1.2,0.9,2,2.5,2.6,4.7c0.6,2.2,0.9,5.4,0.9,9.4
			c0,3.2-0.2,5.9-0.7,8.1c-0.5,2.2-1.1,3.9-2,5.1l2.6,16.4H219l-2-13.6h-3.1v13.6H208.6z M213.9,23.5h2.9c0.6,0,1-0.3,1.4-0.8
			c0.3-0.5,0.6-1.3,0.8-2.2c0.2-1,0.2-2.1,0.2-3.3c0-2-0.2-3.6-0.6-4.6c-0.4-1-1-1.5-1.9-1.5h-2.8V23.5z"/>
		<path class="st1" d="M226.8,46.7V1.6h13.9v9.6H232v8h6.9v9.5H232V37h8.7v9.7H226.8z"/>
	</g>
</g>
</svg>
